<svg width="30" height="30" viewBox="0 0 30 30" fill="none" xmlns="http://www.w3.org/2000/svg">
<path d="M17.2002 4.23755C17.7877 3.25021 19.0624 2.90022 20.0498 3.48755L22.2129 4.72485C23.3501 5.37481 23.7374 6.83729 23.0879 7.96216C21.9504 9.92466 22.8752 11.5247 25.1377 11.5247C26.4375 11.5248 27.5124 12.5874 27.5127 13.8997V16.0999C27.5127 17.3998 26.4501 18.4747 25.1377 18.4749C22.8752 18.4749 21.9504 20.0749 23.0879 22.0374C23.7378 23.1747 23.35 24.6245 22.2129 25.2747L20.0498 26.5129C19.0625 27.1001 17.7877 26.7501 17.2002 25.7629L17.0625 25.5247C15.9376 23.5626 14.0876 23.5627 12.9502 25.5247L12.8125 25.7629C12.225 26.7501 10.9503 27.1 9.96289 26.5129L7.7998 25.2747C6.66257 24.6246 6.27487 23.1622 6.9248 22.0374C8.06221 20.0749 7.13746 18.4749 4.875 18.4749C3.5625 18.4749 2.5 17.3999 2.5 16.0999V13.8997C2.50025 12.5999 3.56265 11.5247 4.875 11.5247C7.1375 11.5247 8.0623 9.92466 6.9248 7.96216C6.27516 6.83723 6.66248 5.37478 7.7998 4.72485L9.96289 3.48755C10.9503 2.90032 12.225 3.25019 12.8125 4.23755L12.9502 4.47485C14.0752 6.43735 15.925 6.43735 17.0625 4.47485L17.2002 4.23755ZM15 10.9377C12.7564 10.9378 10.9375 12.7566 10.9375 15.0002C10.9377 17.2437 12.7565 19.0627 15 19.0627C17.2435 19.0627 19.0623 17.2437 19.0625 15.0002C19.0625 12.7566 17.2437 10.9377 15 10.9377Z" fill="black"/>
</svg>
