<svg width="12" height="12" viewBox="0 0 12 12" fill="none" xmlns="http://www.w3.org/2000/svg">
<path d="M6 12C9.31371 12 12 9.31371 12 6C12 2.68629 9.31371 0 6 0C2.68629 0 0 2.68629 0 6C0 9.31371 2.68629 12 6 12Z" fill="#B3B3B3"/>
<path d="M7.85495 7.96391C7.78995 7.96391 7.72495 7.94891 7.66495 7.90891L6.11495 6.98391C5.72995 6.75391 5.44495 6.24891 5.44495 5.80391V3.75391C5.44495 3.54891 5.61495 3.37891 5.81995 3.37891C6.02495 3.37891 6.19495 3.54891 6.19495 3.75391V5.80391C6.19495 5.98391 6.34495 6.24891 6.49995 6.33891L8.04995 7.26391C8.22995 7.36891 8.28495 7.59891 8.17995 7.77891C8.10495 7.89891 7.97995 7.96391 7.85495 7.96391Z" fill="white"/>
</svg>
