<svg width="46" height="33" viewBox="0 0 46 33" fill="none" xmlns="http://www.w3.org/2000/svg">
<g filter="url(#filter0_d_1849_14863)">
<path d="M9.95504 10.1014L16.836 13.4183C16.9061 13.4521 16.9722 13.4938 17.033 13.5426L25.5348 20.3728C25.9099 20.6742 26.0271 21.1968 25.817 21.6309L22.5309 28.4195C22.2791 28.9397 21.6513 29.1501 21.1396 28.8858L2.70759 19.3664C2.11737 19.0616 1.96564 18.282 2.39801 17.7758L8.73324 10.3595C9.03563 10.0055 9.53659 9.89972 9.95504 10.1014Z" fill="#FF5520"/>
<path d="M9.24578 10.2895L13.3502 19.2985L25.6634 20.8883M16.836 13.4183L9.95504 10.1014C9.53659 9.89972 9.03563 10.0055 8.73324 10.3595L2.39801 17.7758C1.96564 18.282 2.11737 19.0616 2.70759 19.3664L21.1396 28.8858C21.6513 29.1501 22.2791 28.9397 22.5309 28.4195L25.817 21.6309C26.0271 21.1968 25.9099 20.6742 25.5348 20.3728L17.033 13.5426C16.9722 13.4938 16.9061 13.4521 16.836 13.4183Z" stroke="#FF754A" stroke-width="0.3" stroke-linecap="round"/>
</g>
<g filter="url(#filter1_i_1849_14863)">
<path d="M29.8512 0.123624C30.2061 -0.182627 30.7495 0.121341 30.6751 0.584692L30.5741 1.20797C30.5181 1.55585 30.8272 1.85218 31.1714 1.78111L31.7178 1.66805C32.1102 1.58677 32.4352 1.9768 32.2857 2.34933L30.8438 5.93071C35.3294 4.72457 40.8384 4.52373 44.6845 4.68121C45.1614 4.70074 45.3225 5.30968 44.9268 5.5768L43.1348 6.78403C42.8802 6.95556 42.8379 7.31384 43.0445 7.54101L44.1941 8.80526C44.3172 8.94076 44.3607 9.13417 44.2765 9.2968C43.2735 11.2306 38.858 12.5315 35.9766 13.1013C35.5614 13.1835 35.4095 13.7117 35.7245 13.995L39.0672 17.0003C39.417 17.3151 39.0447 17.8756 38.62 17.6737C38.2135 17.4803 37.8402 17.9922 38.1472 18.3215L39.3723 19.633C39.6721 19.9545 39.4446 20.4802 39.0054 20.4804H36.9869C36.5644 20.4807 36.3312 20.9714 36.5975 21.3003L38.1168 23.178C38.4299 23.5653 38.051 24.1245 37.5763 23.9753L35.0497 23.1799C34.9758 23.1566 34.9084 23.1158 34.8525 23.062L27.8738 16.3377C27.6591 16.131 27.3093 16.1545 27.0882 16.3544C26.4654 16.9173 25.3087 17.6483 23.7396 17.8162C21.2512 18.0826 19.0114 16.7506 17.7672 16.7506H15.6496C15.2634 16.7503 15.0228 16.3318 15.221 15.9995C15.9775 14.7304 17.1163 12.9183 17.7672 12.2215C18.7285 11.1924 20.1541 9.91488 23.3884 10.3084C23.5991 10.334 23.8042 10.2309 23.9171 10.0508C23.9231 10.0413 23.9297 10.0318 23.9357 10.0223C23.9384 10.0082 23.9408 9.99389 23.9446 9.98005L25.6277 3.88C25.6543 3.78412 25.7084 3.6982 25.7837 3.63324L29.8512 0.123624Z" fill="black"/>
</g>
<defs>
<filter id="filter0_d_1849_14863" x="0" y="8.84998" width="28.0706" height="23.3" filterUnits="userSpaceOnUse" color-interpolation-filters="sRGB">
<feFlood flood-opacity="0" result="BackgroundImageFix"/>
<feColorMatrix in="SourceAlpha" type="matrix" values="0 0 0 0 0 0 0 0 0 0 0 0 0 0 0 0 0 0 127 0" result="hardAlpha"/>
<feOffset dy="1"/>
<feGaussianBlur stdDeviation="1"/>
<feComposite in2="hardAlpha" operator="out"/>
<feColorMatrix type="matrix" values="0 0 0 0 0 0 0 0 0 0 0 0 0 0 0 0 0 0 0.25 0"/>
<feBlend mode="normal" in2="BackgroundImageFix" result="effect1_dropShadow_1849_14863"/>
<feBlend mode="normal" in="SourceGraphic" in2="effect1_dropShadow_1849_14863" result="shape"/>
</filter>
<filter id="filter1_i_1849_14863" x="15.15" y="0" width="30" height="24" filterUnits="userSpaceOnUse" color-interpolation-filters="sRGB">
<feFlood flood-opacity="0" result="BackgroundImageFix"/>
<feBlend mode="normal" in="SourceGraphic" in2="BackgroundImageFix" result="shape"/>
<feColorMatrix in="SourceAlpha" type="matrix" values="0 0 0 0 0 0 0 0 0 0 0 0 0 0 0 0 0 0 127 0" result="hardAlpha"/>
<feOffset/>
<feGaussianBlur stdDeviation="3.5"/>
<feComposite in2="hardAlpha" operator="arithmetic" k2="-1" k3="1"/>
<feColorMatrix type="matrix" values="0 0 0 0 0 0 0 0 0 0 0 0 0 0 0 0 0 0 0.1 0"/>
<feBlend mode="normal" in2="shape" result="effect1_innerShadow_1849_14863"/>
</filter>
</defs>
</svg>
