<svg width="93" height="73" viewBox="0 0 93 73" fill="none" xmlns="http://www.w3.org/2000/svg">
<mask id="mask0_3948_11550" style="mask-type:alpha" maskUnits="userSpaceOnUse" x="0" y="0" width="93" height="73">
<rect width="93" height="73" rx="8" fill="white"/>
</mask>
<g mask="url(#mask0_3948_11550)">
<g filter="url(#filter0_f_3948_11550)">
<path d="M85 0C89.4183 0 93 3.58172 93 8V65C93 69.4183 89.4183 73 85 73H8C3.58172 73 0 69.4183 0 65V8C0 3.58172 3.58172 0 8 0H85ZM38.918 26.875H12.7617L33.9219 42.249L25.8398 67.125L47 51.751L68.1602 67.125L60.0781 42.249L81.2383 26.875H55.082L47 2L38.918 26.875Z" fill="url(#paint0_radial_3948_11550)"/>
</g>
</g>
<rect x="0.5" y="0.5" width="92" height="72" rx="7.5" stroke="url(#paint1_linear_3948_11550)"/>
<defs>
<filter id="filter0_f_3948_11550" x="-4" y="-4" width="101" height="81" filterUnits="userSpaceOnUse" color-interpolation-filters="sRGB">
<feFlood flood-opacity="0" result="BackgroundImageFix"/>
<feBlend mode="normal" in="SourceGraphic" in2="BackgroundImageFix" result="shape"/>
<feGaussianBlur stdDeviation="2" result="effect1_foregroundBlur_3948_11550"/>
</filter>
<radialGradient id="paint0_radial_3948_11550" cx="0" cy="0" r="1" gradientUnits="userSpaceOnUse" gradientTransform="translate(46.5 36.5) rotate(180) scale(46.5 36.5)">
<stop offset="0.485577" stop-color="#FFEC73"/>
<stop offset="1" stop-color="#FFF6BE"/>
</radialGradient>
<linearGradient id="paint1_linear_3948_11550" x1="46.5" y1="0" x2="46.5" y2="73" gradientUnits="userSpaceOnUse">
<stop stop-color="white"/>
<stop offset="1" stop-color="#FFEC73"/>
</linearGradient>
</defs>
</svg>
