<svg width="20" height="20" viewBox="0 0 20 20" fill="none" xmlns="http://www.w3.org/2000/svg">
<circle cx="10" cy="10" r="10" fill="#FF5520"/>
<path d="M10.04 5C10.5923 5 11.04 5.44772 11.04 6V8.95996H14C14.5523 8.95996 15 9.40768 15 9.95996C14.9998 10.5121 14.5521 10.96 14 10.96H11.04V14C11.04 14.5523 10.5923 15 10.04 15C9.4879 14.9998 9.04004 14.5522 9.04004 14V10.96H6C5.44786 10.96 5.00023 10.5121 5 9.95996C5 9.40768 5.44772 8.95996 6 8.95996H9.04004V6C9.04004 5.44782 9.4879 5.00017 10.04 5Z" fill="white"/>
</svg>
