<svg width="20" height="20" viewBox="0 0 20 20" fill="none" xmlns="http://www.w3.org/2000/svg">
<path d="M9.22054 0.391561C9.61261 -0.130521 10.3874 -0.13052 10.7795 0.391561L12.2725 2.37975C12.5048 2.68902 12.8936 2.83251 13.2676 2.74696L15.6719 2.19698C16.3032 2.05256 16.8967 2.55749 16.8661 3.21294L16.7494 5.70905C16.7312 6.09732 16.9381 6.46065 17.2788 6.63885L19.4693 7.78442C20.0445 8.08524 20.179 8.85883 19.74 9.34097L18.0681 11.177C17.808 11.4626 17.7361 11.8758 17.8842 12.2344L18.8359 14.5395C19.0858 15.1448 18.6984 15.825 18.0564 15.9083L15.6116 16.2252C15.2314 16.2745 14.9144 16.5441 14.8005 16.9153L14.0681 19.3013C13.8758 19.9279 13.1477 20.1966 12.6032 19.8419L10.5295 18.4914C10.2069 18.2813 9.7931 18.2813 9.47053 18.4914L7.3968 19.8419C6.85226 20.1966 6.12421 19.9279 5.9319 19.3013L5.19955 16.9153C5.08563 16.5441 4.76865 16.2745 4.38836 16.2252L1.94357 15.9083C1.30159 15.825 0.914204 15.1448 1.16411 14.5395L2.11581 12.2344C2.26385 11.8758 2.192 11.4626 1.93193 11.177L0.26003 9.34097C-0.178996 8.85883 -0.0444582 8.08524 0.530733 7.78442L2.72118 6.63885C3.0619 6.46065 3.2688 6.09732 3.25064 5.70905L3.13393 3.21294C3.10328 2.55749 3.69679 2.05256 4.32813 2.19698L6.73238 2.74696C7.10637 2.83251 7.49521 2.68902 7.72746 2.37975L9.22054 0.391561Z" fill="#EFEDEB"/>
</svg>
